<?xml version="1.0" encoding="iso-8859-1"?>
<!-- Generator: Adobe Illustrator 18.0.0, SVG Export Plug-In . SVG Version: 6.00 Build 0)  -->
<!DOCTYPE svg PUBLIC "-//W3C//DTD SVG 1.1//EN" "http://www.w3.org/Graphics/SVG/1.1/DTD/svg11.dtd">
<svg version="1.1" id="Capa_1" xmlns="http://www.w3.org/2000/svg" xmlnsXlink="http://www.w3.org/1999/xlink" x="0px" y="0px"
	 viewBox="0 0 372 372" style="enable-background:new 0 0 372 372;" fill="#895835" xml:space="preserve">
<g>
	<path d="M186,0C83.439,0,0,83.439,0,186s83.439,186,186,186s186-83.439,186-186S288.561,0,186,0z M186,206.563
		c36.439,0,66.663,27.119,71.546,62.236H114.455C119.337,233.681,149.561,206.563,186,206.563z M266.289,233.445
		c-2.057-3.627-4.353-7.101-6.866-10.403h88.406c-0.788,3.446-1.692,6.849-2.692,10.21h-76.902
		C267.569,233.252,266.919,233.32,266.289,233.445z M186,20c91.533,0,166,74.467,166,166c0,5.753-0.295,11.438-0.869,17.042h-112.58
		C223.63,192.66,205.515,186.563,186,186.563c-4.388,0-8.703,0.315-12.929,0.91c-7.915-22.398-2.372-47.049,14.069-63.917
		c3.34,0.642,6.433,2.209,8.952,4.612c3.464,3.302,5.433,7.755,5.547,12.539c0.129,5.44,4.58,9.762,9.992,9.762
		c0.081,0,0.161-0.001,0.242-0.003c5.521-0.131,9.891-4.713,9.76-10.234c-0.24-10.125-4.409-19.549-11.738-26.538
		c-2.311-2.203-4.849-4.08-7.559-5.611c10.477-8.368,25.625-9.301,37.202-1.289c4.542,3.144,10.771,2.009,13.914-2.533
		c3.143-4.542,2.008-10.771-2.533-13.913c-19.116-13.228-44.155-11.598-61.365,2.358c-8.752-21.851-31.377-36.056-55.835-33.119
		c-5.484,0.658-9.396,5.636-8.738,11.12c0.658,5.484,5.638,9.401,11.12,8.738c12.977-1.555,25.127,4.612,31.847,14.867
		c-12.443-2.628-25.929,1.044-35.331,10.904c-3.811,3.997-3.661,10.327,0.336,14.138c1.936,1.846,4.42,2.763,6.899,2.763
		c2.639,0,5.273-1.038,7.239-3.099c5.494-5.763,13.94-7.048,20.755-3.762c-7.521,9.331-12.999,20.253-15.877,31.975
		c-3.666,14.939-3.029,30.684,1.691,45.189c-7.208,2.707-13.989,6.292-20.214,10.624H20.869C20.295,197.438,20,191.753,20,186
		C20,94.467,94.467,20,186,20z M186,352c-67.606,0-125.894-40.629-151.751-98.748h33.618c5.523,0,10-4.477,10-10s-4.477-10-10-10
		H26.862c-1-3.361-1.903-6.764-2.692-10.21h88.406c-11.797,15.497-18.812,34.822-18.812,55.756c0,5.523,4.477,10,10,10h164.471
		c5.522,0,10-4.477,10-10c0-8.86-1.259-17.431-3.602-25.546h63.118C311.894,311.371,253.606,352,186,352z"/>
</g>
<g>
</g>
<g>
</g>
<g>
</g>
<g>
</g>
<g>
</g>
<g>
</g>
<g>
</g>
<g>
</g>
<g>
</g>
<g>
</g>
<g>
</g>
<g>
</g>
<g>
</g>
<g>
</g>
<g>
</g>
</svg>
