<?xml version="1.0" standalone="no"?>
<!DOCTYPE svg PUBLIC "-//W3C//DTD SVG 20010904//EN"
 "http://www.w3.org/TR/2001/REC-SVG-20010904/DTD/svg10.dtd">
<svg version="1.0" xmlns="http://www.w3.org/2000/svg" viewBox="0 -250 2300 6"
 preserveAspectRatio="xMidYMid meet">

<g transform="translate(0.000000,307.000000) scale(0.400000,-0.400000)"
fill="#C89F6E" stroke="#b89163" stroke-width="5" >
<path d="M3203 2180 c-80 -48 -150 -228 -204 -525 -31 -169 -38 -584 -12 -660
14 -38 24 -51 41 -53 26 -4 30 14 4 20 -80 21 -60 566 34 918 72 271 200 381
276 237 22 -41 23 -50 23 -349 0 -321 4 -348 40 -318 24 20 49 72 100 216 114
317 204 430 243 304 11 -36 12 -91 5 -280 -4 -129 -8 -311 -8 -405 1 -156 3
-174 24 -220 13 -27 25 -45 28 -38 2 6 -4 24 -14 39 -16 25 -18 52 -18 234 0
113 2 309 5 435 5 271 -2 304 -67 305 -55 0 -116 -102 -208 -350 -65 -175 -91
-230 -106 -230 -7 0 -9 78 -4 258 7 264 1 353 -31 414 -35 68 -90 86 -151 48z"/>
<path d="M1787 2166 c-124 -45 -281 -213 -338 -365 -28 -75 -24 -182 8 -227
27 -37 110 -83 229 -125 96 -34 166 -67 227 -107 l38 -25 -80 -81 c-168 -170
-203 -306 -77 -306 52 0 121 42 159 98 56 80 75 188 44 249 -16 29 -15 31 11
55 31 28 136 108 143 108 3 0 3 -29 1 -65 -4 -59 -3 -65 15 -65 15 0 30 18 53
63 43 82 69 117 84 117 6 0 22 -20 34 -45 39 -81 81 -91 153 -35 l36 29 -4
-43 c-14 -120 86 -112 190 16 63 76 41 71 -37 -8 -63 -63 -79 -75 -103 -72
l-28 3 2 73 c1 39 -1 72 -6 72 -4 0 -20 -14 -37 -31 -38 -40 -80 -62 -105 -54
-11 4 -31 29 -45 56 -13 28 -32 53 -40 56 -22 8 -58 -31 -99 -108 -20 -38 -39
-69 -42 -69 -3 0 -3 28 -1 63 5 51 14 76 53 142 141 237 211 423 162 433 -27
6 -51 -21 -90 -101 -33 -68 -107 -284 -122 -355 -5 -26 -25 -46 -103 -105 -53
-39 -100 -73 -104 -75 -4 -2 -22 8 -40 21 -45 34 -138 79 -228 111 -114 41
-192 81 -225 116 -28 29 -30 37 -30 105 1 66 5 82 44 162 36 71 60 104 130
174 93 93 155 129 231 137 41 4 51 1 82 -26 46 -41 58 -87 58 -218 0 -79 3
-105 11 -97 7 7 10 50 7 125 -3 93 -8 121 -26 156 -40 75 -108 99 -195 68z
m599 -257 c-4 -23 -22 -75 -41 -116 -41 -89 -135 -256 -141 -250 -12 12 90
292 132 365 33 57 59 57 50 1z m-398 -650 c18 -34 8 -112 -23 -176 -44 -89
-143 -155 -200 -133 -63 24 -27 115 100 248 48 51 93 91 99 89 6 -2 17 -14 24
-28z"/>
<path d="M2542 1529 c2 -6 8 -10 13 -10 5 0 11 4 13 10 2 6 -4 11 -13 11 -9 0
-15 -5 -13 -11z"/>
<path d="M3887 1534 c-8 -8 1 -24 14 -24 5 0 9 7 9 15 0 15 -12 20 -23 9z"/>
<path d="M4168 1498 c-9 -7 -30 -40 -47 -73 l-31 -60 3 45 c2 25 7 53 11 63
16 35 -13 16 -48 -33 -61 -84 -154 -137 -169 -95 -4 8 -2 40 3 71 11 64 6 81
-10 40 -11 -30 -13 -105 -4 -130 16 -41 92 -10 162 66 l29 30 7 -42 c4 -24 10
-48 13 -53 3 -6 25 27 47 73 23 47 46 86 52 87 6 2 18 -23 27 -56 20 -71 42
-88 89 -72 43 15 138 88 138 106 0 10 -19 0 -53 -28 -29 -23 -68 -49 -86 -57
-31 -13 -35 -12 -51 8 -10 12 -21 38 -25 59 -7 37 -21 63 -34 63 -4 0 -14 -6
-23 -12z"/>
</g>
</svg>
